<?xml version="1.0" encoding="utf-8"?>
<!-- Generator: Adobe Illustrator 23.0.5, SVG Export Plug-In . SVG Version: 6.00 Build 0)  -->
<svg version="1.1" id="Layer_1" xmlns="http://www.w3.org/2000/svg" xmlns:xlink="http://www.w3.org/1999/xlink" x="0px" y="0px"
	 viewBox="0 0 20 20" style="enable-background:new 0 0 20 20;" xml:space="preserve">
<style type="text/css">
	.st0{fill:#D6EEF0;}
	.st1{fill:#166B74;}
	.st2{fill:#FFFFFF;}
</style>
<g>
	<path class="st0" d="M4.55,17.7h10.04c0.32,0,0.58-0.26,0.58-0.58V6.73c0-0.15-0.06-0.29-0.17-0.4l-3.4-3.4
		c-0.11-0.11-0.25-0.17-0.4-0.17H4.55c-0.32,0-0.58,0.26-0.58,0.58v13.78C3.97,17.44,4.23,17.7,4.55,17.7z"/>
	<path class="st1" d="M14.59,18.12H4.55c-0.55,0-1-0.45-1-1V3.34c0-0.55,0.45-1,1-1h6.65c0.26,0,0.51,0.1,0.69,0.29l3.4,3.4
		c0.18,0.18,0.29,0.43,0.29,0.69v10.39C15.59,17.67,15.15,18.12,14.59,18.12z M4.55,3.18c-0.09,0-0.17,0.08-0.17,0.17v13.78
		c0,0.09,0.08,0.17,0.17,0.17h10.04c0.09,0,0.17-0.08,0.17-0.17V6.73c-0.02-0.04-0.03-0.07-0.04-0.11l-3.4-3.4
		c-0.03-0.03-0.07-0.04-0.11-0.04H4.55z"/>
</g>
<g>
	<path class="st1" d="M15.18,6.91h-3.22c-0.51,0-0.93-0.42-0.93-0.93V2.76c0-0.23,0.19-0.42,0.42-0.42c0.23,0,0.42,0.19,0.42,0.42
		v3.22c0,0.06,0.04,0.1,0.1,0.1h3.22c0.23,0,0.42,0.19,0.42,0.42S15.41,6.91,15.18,6.91z"/>
</g>
<g>
	<path class="st1" d="M13.31,8.78H5.84c-0.23,0-0.42-0.19-0.42-0.42c0-0.23,0.19-0.42,0.42-0.42h7.47c0.23,0,0.42,0.19,0.42,0.42
		C13.72,8.59,13.54,8.78,13.31,8.78z"/>
</g>
<g>
	<path class="st1" d="M13.31,11.89H5.84c-0.23,0-0.42-0.19-0.42-0.42c0-0.23,0.19-0.42,0.42-0.42h7.47c0.23,0,0.42,0.19,0.42,0.42
		C13.72,11.71,13.54,11.89,13.31,11.89z"/>
</g>
<g>
	<path class="st1" d="M13.31,15.01H5.84c-0.23,0-0.42-0.19-0.42-0.42c0-0.23,0.19-0.42,0.42-0.42h7.47c0.23,0,0.42,0.19,0.42,0.42
		C13.72,14.82,13.54,15.01,13.31,15.01z"/>
</g>
</svg>
