<svg id="Layer_1" data-name="Layer 1" xmlns="http://www.w3.org/2000/svg" viewBox="0 0 20 20"><defs><style>.cls-1{fill:#d6eef0;}.cls-2{fill:#166b74;}.cls-3{fill:#fff;}</style></defs><title>Check_Icon</title><path class="cls-1" d="M3,17.79H13.72a.5.5,0,0,0,.49-.5v-11A.48.48,0,0,0,14.07,6L10.44,2.34a.48.48,0,0,0-.34-.14H3a.49.49,0,0,0-.5.49v14.6A.5.5,0,0,0,3,17.79Z"/><path class="cls-2" d="M13.72,18.22H3A.94.94,0,0,1,2,17.29V2.69A.94.94,0,0,1,3,1.76H10.1a1,1,0,0,1,.65.27l3.63,3.62a.91.91,0,0,1,.27.64v11A.93.93,0,0,1,13.72,18.22ZM3,2.63a.07.07,0,0,0-.07.06v14.6a.07.07,0,0,0,.07.06H13.72a.06.06,0,0,0,.06-.06v-11l0,0L10.13,2.64H3Z"/><path class="cls-2" d="M14.21,6.53H10.84a1,1,0,0,1-1-1V2.2a.44.44,0,0,1,.44-.44.44.44,0,0,1,.43.44V5.56a.11.11,0,0,0,.11.1h3.37a.44.44,0,0,1,.44.43A.44.44,0,0,1,14.21,6.53Z"/><polygon class="cls-3" points="5.16 10.42 10.05 15.29 17.39 5.55 10.05 12.86 5.16 10.42"/><path class="cls-3" d="M10.05,16.38a1.09,1.09,0,0,1-.76-.32l-4.9-4.87A1.08,1.08,0,0,1,5.65,9.46l4.19,2.08,6.79-6.75a1.09,1.09,0,0,1,1.48-.06,1.08,1.08,0,0,1,.15,1.47l-7.34,9.74a1.08,1.08,0,0,1-.79.44Z"/><path class="cls-2" d="M5.51,10.77,10,15.23a.08.08,0,0,0,.12,0l6.61-8.77c.06-.08,0-.17-.13-.1L10.1,12.82a.09.09,0,0,1-.1,0L5.6,10.64A.08.08,0,0,0,5.51,10.77Z"/><path class="cls-2" d="M10.05,15.69a.56.56,0,0,1-.37-.15L5.2,11.08a.52.52,0,0,1,.6-.82L10,12.33,16.29,6A.51.51,0,0,1,17,6a.49.49,0,0,1,.07.69l-6.6,8.77a.56.56,0,0,1-.38.21ZM9.76,15Zm.54,0ZM7.36,12,10,14.64l3.36-4.47-3,3a.51.51,0,0,1-.59.09Z"/></svg>