<!DOCTYPE svg PUBLIC "-//W3C//DTD SVG 1.1//EN" "http://www.w3.org/Graphics/SVG/1.1/DTD/svg11.dtd" [
	<!ENTITY ns_flows "http://ns.adobe.com/Flows/1.0/">
]><svg xmlns="http://www.w3.org/2000/svg" width="24" height="24" viewBox="0 0 24 24" preserveAspectRatio="xMinYMid meet" overflow="visible"><linearGradient id="a" gradientUnits="userSpaceOnUse" x1="20" y1="8" x2="20" y2="24"><stop offset="0" stop-color="#016771"/><stop offset="1" stop-color="#016771"/></linearGradient><path fill="url(#a)" d="M16 8h8v16h-8z"/><linearGradient id="b" gradientUnits="userSpaceOnUse" x1="20" y1="9" x2="20" y2="23"><stop offset="0" stop-color="#f3fffd"/><stop offset="1" stop-color="#f3fffd"/></linearGradient><path fill="url(#b)" d="M17 9h6v14h-6z"/><linearGradient id="c" gradientUnits="userSpaceOnUse" x1="20" y1="10" x2="20" y2="22"><stop offset="0" stop-color="#69aeb4"/><stop offset=".557" stop-color="#69aeb4"/><stop offset="1" stop-color="#69aeb4"/></linearGradient><path fill="url(#c)" d="M18 10h4v12h-4z"/><linearGradient id="d" gradientUnits="userSpaceOnUse" x1="11.999" x2="11.999" y2="24"><stop offset="0" stop-color="#016771"/><stop offset="1" stop-color="#016771"/></linearGradient><path fill="url(#d)" d="M8 0h8v24H8z"/><linearGradient id="e" gradientUnits="userSpaceOnUse" x1="11.999" y1="1" x2="11.999" y2="23"><stop offset="0" stop-color="#f3fffd"/><stop offset=".239" stop-color="#f3fffd"/><stop offset=".45" stop-color="#f3fffd"/><stop offset=".651" stop-color="#f3fffd"/><stop offset=".844" stop-color="#f3fffd"/><stop offset="1" stop-color="#f3fffd"/></linearGradient><path fill="url(#e)" d="M9 1h6v22H9z"/><linearGradient id="f" gradientUnits="userSpaceOnUse" x1="11.999" y1="2" x2="11.999" y2="22"><stop offset="0" stop-color="#69aeb4"/><stop offset="1" stop-color="#69aeb4"/></linearGradient><path fill="url(#f)" d="M10 2h4v20h-4z"/><linearGradient id="g" gradientUnits="userSpaceOnUse" x1="4" y1="12" x2="4" y2="24"><stop offset="0" stop-color="#016771"/><stop offset="1" stop-color="#016771"/></linearGradient><path fill="url(#g)" d="M0 12h8v12H0z"/><linearGradient id="h" gradientUnits="userSpaceOnUse" x1="4" y1="13" x2="4" y2="23"><stop offset="0" stop-color="#f3fffd"/><stop offset="1" stop-color="#f3fffd"/></linearGradient><path fill="url(#h)" d="M1 13h6v10H1z"/><linearGradient id="i" gradientUnits="userSpaceOnUse" x1="4" y1="14" x2="4" y2="22"><stop offset="0" stop-color="#69aeb4"/><stop offset="1" stop-color="#69aeb4"/></linearGradient><path fill="url(#i)" d="M2 14h4v8H2z"/></svg>