<svg id="Layer_1" data-name="Layer 1" xmlns="http://www.w3.org/2000/svg" viewBox="0 0 20 20"><defs><style>.cls-1{fill:#d6eef0;}.cls-2{fill:#166b74;}.cls-3{fill:#fff;}</style></defs><title>H5P_Icon</title><rect class="cls-1" x="1.56" y="2.99" width="16.96" height="11.31" rx="1.88"/><path class="cls-2" d="M18.08,14.89H2a1,1,0,0,1-1-1V3.44a1,1,0,0,1,1-1H18.08a1,1,0,0,1,1,1V13.86A1,1,0,0,1,18.08,14.89ZM2.15,13.71H17.93V3.58H2.15Z"/><polyline class="cls-3" points="10.04 18.54 10.04 14.3 5.8 18.54"/><path class="cls-2" d="M5.8,19.13A.58.58,0,0,1,5.39,19a.6.6,0,0,1,0-.84l4.24-4.24a.58.58,0,0,1,.64-.12.58.58,0,0,1,.36.54v4.24a.59.59,0,0,1-.59.59.6.6,0,0,1-.59-.59V15.72L6.22,19A.61.61,0,0,1,5.8,19.13Z"/><line class="cls-3" x1="14.28" y1="18.54" x2="10.04" y2="14.3"/><path class="cls-2" d="M14.28,19.13a.58.58,0,0,1-.41-.17L9.63,14.72a.6.6,0,0,1,0-.84.59.59,0,0,1,.83,0l4.24,4.24a.6.6,0,0,1,0,.84A.63.63,0,0,1,14.28,19.13Z"/><path class="cls-2" d="M10,3.35a.6.6,0,0,1-.59-.59V.87A.59.59,0,0,1,10,.29a.58.58,0,0,1,.59.58V2.76A.59.59,0,0,1,10,3.35Z"/><path class="cls-2" d="M16.4,6.53H3.68a.47.47,0,0,1,0-.94H16.4a.47.47,0,0,1,0,.94Z"/><path class="cls-2" d="M16.4,8.88H3.68a.47.47,0,0,1,0-.94H16.4a.47.47,0,0,1,0,.94Z"/><path class="cls-2" d="M16.4,11.24H3.68a.47.47,0,0,1,0-.94H16.4a.47.47,0,1,1,0,.94Z"/></svg>