<?xml version="1.0" encoding="utf-8"?>
<!-- Generator: Adobe Illustrator 23.0.5, SVG Export Plug-In . SVG Version: 6.00 Build 0)  -->
<svg version="1.1" id="Layer_1" xmlns="http://www.w3.org/2000/svg" xmlns:xlink="http://www.w3.org/1999/xlink" x="0px" y="0px"
	 viewBox="0 0 20 20" style="enable-background:new 0 0 20 20;" xml:space="preserve">
<style type="text/css">
	.st0{fill:#D6EEF0;}
	.st1{fill:#166B74;}
</style>
<path class="st0" d="M5.2,9.88l5.29,1.2c0.1,0.02,0.21,0.02,0.31,0l5.29-1.16v2.24c0,0-2.85,1.38-5.44,1.35S5.2,12.36,5.2,12.36
	V9.88z"/>
<g>
	<path class="st0" d="M10.26,5.84l-7.99,2c-0.1,0.03-0.1,0.18,0,0.2l7.99,2c0.25,0.06,0.51,0.06,0.75,0l7.99-2
		c0.1-0.03,0.1-0.18,0-0.2l-7.99-2C10.77,5.77,10.51,5.77,10.26,5.84z"/>
	<path class="st1" d="M10.64,10.47c-0.16,0-0.32-0.02-0.47-0.06l-7.99-2C1.96,8.36,1.81,8.16,1.81,7.93c0-0.23,0.15-0.42,0.37-0.48
		l7.99-2h0c0.31-0.08,0.63-0.08,0.94,0l7.99,2c0.22,0.06,0.37,0.25,0.37,0.48s-0.15,0.42-0.37,0.48l-7.99,2
		C10.96,10.45,10.8,10.47,10.64,10.47z M3.48,7.93l6.88,1.72c0.18,0.05,0.38,0.05,0.57,0l6.88-1.72l-6.88-1.72
		c-0.18-0.05-0.38-0.05-0.57,0L3.48,7.93z"/>
</g>
<path class="st1" d="M10.64,13.8c-1.81,0-4.29-0.71-5.28-1.01c-0.35-0.11-0.59-0.43-0.59-0.8v-1.84c0-0.22,0.17-0.39,0.39-0.39
	c0.22,0,0.39,0.17,0.39,0.39v1.84c0,0.03,0.02,0.05,0.04,0.06c0.74,0.23,3.3,0.98,5.05,0.98c1.75,0,4.31-0.75,5.05-0.98
	c0.03-0.01,0.04-0.03,0.04-0.06v-1.84c0-0.22,0.17-0.39,0.39-0.39c0.22,0,0.39,0.17,0.39,0.39v1.84c0,0.37-0.24,0.69-0.59,0.8
	C14.94,13.1,12.45,13.8,10.64,13.8z"/>
<path class="st1" d="M2.6,12.71H1.14c-0.21,0-0.41-0.11-0.52-0.29c-0.11-0.18-0.12-0.41-0.03-0.6l0.89-1.78v-2.1
	c0-0.22,0.17-0.39,0.39-0.39h8.77c0.22,0,0.39,0.17,0.39,0.39c0,0.22-0.17,0.39-0.39,0.39H2.26v1.71l0.89,1.78
	c0.1,0.19,0.09,0.42-0.03,0.6C3.01,12.6,2.82,12.71,2.6,12.71z M2.46,12.17L2.46,12.17L2.46,12.17z M1.41,11.93h0.93L1.87,11
	L1.41,11.93z"/>
</svg>
