<?xml version="1.0" encoding="utf-8"?>
<!-- Generator: Adobe Illustrator 23.0.5, SVG Export Plug-In . SVG Version: 6.00 Build 0)  -->
<svg version="1.1" id="Layer_1" xmlns="http://www.w3.org/2000/svg" xmlns:xlink="http://www.w3.org/1999/xlink" x="0px" y="0px"
	 viewBox="0 0 20 20" style="enable-background:new 0 0 20 20;" xml:space="preserve">
<style type="text/css">
	.st0{fill:#166B74;}
	.st1{fill:#D6EEF0;}
	.st2{fill:#D6EEF0;stroke:#166B74;stroke-width:4;stroke-linecap:round;stroke-linejoin:round;stroke-miterlimit:10;}
</style>
<g>
	<g>
		<path class="st0" d="M17.83,16.87V4.31c-0.06-0.53-0.1-0.46-0.28-0.61c-0.89-0.73-4.56-2.04-7.51,0.43
			C9.75,4.37,9.35,4.38,9.06,4.16c-1.13-0.85-5.4-2.53-7.27,0.15C1.7,4.42,1.67,4.57,1.67,4.71l0,12.16c0,0.43,0.35,0.78,0.78,0.78
			h3.53h3.57h7.49C17.48,17.65,17.83,17.3,17.83,16.87z"/>
		<path class="st0" d="M17.05,17.75H2.45c-0.49,0-0.89-0.4-0.89-0.89V4.71c0-0.26,0.14-0.48,0.28-0.65c1.93-2.4,6.02-0.94,7.29,0.04
			c0.25,0.19,0.59,0.17,0.83-0.03c2.89-2.41,6.59-1.3,7.65-0.43c0.03,0.02,0.06,0.04,0.08,0.06c0.15,0.11,0.2,0.18,0.24,0.62
			l0,12.57C17.93,17.36,17.54,17.75,17.05,17.75z M4.88,2.96c-1.05,0-2.23,0.3-3,1.41c-0.07,0.1-0.1,0.22-0.1,0.34
			c0,1.33,0,9.72,0,12.17c0,0.38,0.3,0.67,0.68,0.67h14.6c0.38,0,0.68-0.3,0.68-0.68V4.31c-0.04-0.38-0.07-0.4-0.15-0.46
			c-0.03-0.02-0.06-0.04-0.09-0.07c-0.76-0.63-4.4-2.06-7.38,0.43c-0.32,0.27-0.77,0.28-1.1,0.03c-0.49-0.37-1.75-1-3.2-1.22
			C5.51,2.98,5.2,2.96,4.88,2.96z"/>
	</g>
	<g>
		<path class="st1" d="M2.5,17.03c0,0,3.74-3.74,7.47,0c0,0,3.74-3.74,7.47,0V3.95c0,0-3.74-3.74-7.47,0c0,0-3.74-3.74-7.47,0V17.03
			z"/>
		<path class="st0" d="M17.44,17.44c-0.11,0-0.21-0.04-0.29-0.12c-3.39-3.39-6.74-0.14-6.88,0c-0.16,0.16-0.42,0.16-0.59,0
			c-3.39-3.39-6.74-0.14-6.88,0c-0.12,0.12-0.3,0.15-0.45,0.09c-0.15-0.06-0.26-0.22-0.26-0.38l0-13c0-0.15,0.06-0.31,0.17-0.42
			c3.23-3.17,6.48-1.17,7.6-0.3C9.92,3.36,10,3.35,10.06,3.3c3.85-3.37,7.63,0.32,7.67,0.36c0.08,0.08,0.12,0.18,0.12,0.29v13.07
			c0,0.17-0.1,0.32-0.26,0.38C17.55,17.43,17.49,17.44,17.44,17.44z M6.39,14.96c1.05,0,2.21,0.34,3.38,1.33
			c0.12,0.1,0.29,0.11,0.42,0.02c1.06-0.8,3.63-2.28,6.37-0.53c0.2,0.13,0.46,0,0.46-0.24l0-10.66c0-0.65-0.06-0.81-0.33-1.02
			c-0.97-0.75-3.63-2.42-6.43,0.38c-0.16,0.16-0.43,0.16-0.59,0C9.54,4.11,6.41,1.08,3.12,3.94C2.88,4.14,2.91,4.29,2.91,4.46
			l0,11.1c0,0.25,0.27,0.41,0.49,0.28C4.15,15.4,5.2,14.96,6.39,14.96z"/>
	</g>
	<g>
		<g>
			<path class="st1" d="M8.61,6.72c-1.05-0.57-2.61-1.05-4.3-0.31"/>
			<path class="st0" d="M8.61,7.13c-0.07,0-0.13-0.02-0.2-0.05c-0.94-0.51-2.38-0.98-3.93-0.3c-0.21,0.09-0.45,0-0.55-0.21
				c-0.09-0.21,0-0.45,0.21-0.55c1.86-0.81,3.56-0.27,4.66,0.33c0.2,0.11,0.28,0.36,0.17,0.56C8.9,7.05,8.76,7.13,8.61,7.13z"/>
		</g>
		<g>
			<path class="st1" d="M11.42,6.72c1.05-0.57,2.61-1.05,4.3-0.31"/>
			<path class="st0" d="M11.42,7.13c-0.15,0-0.29-0.08-0.37-0.22c-0.11-0.2-0.04-0.45,0.17-0.56c1.1-0.6,2.8-1.14,4.66-0.33
				c0.21,0.09,0.31,0.34,0.21,0.55C16,6.78,15.76,6.88,15.55,6.79c-1.55-0.68-3-0.21-3.93,0.3C11.55,7.12,11.49,7.13,11.42,7.13z"/>
		</g>
	</g>
	<g>
		<g>
			<path class="st1" d="M8.61,9.66c-1.05-0.57-2.61-1.05-4.3-0.31"/>
			<path class="st0" d="M8.61,9.91c-0.07,0-0.13-0.02-0.2-0.05c-0.94-0.51-2.38-0.98-3.93-0.3c-0.21,0.09-0.45,0-0.55-0.21
				c-0.09-0.21,0-0.45,0.21-0.55c1.86-0.81,3.56-0.27,4.66,0.33c0.2,0.11,0.28,0.36,0.17,0.56C8.9,9.83,8.76,9.91,8.61,9.91z"/>
		</g>
		<g>
			<path class="st1" d="M11.42,9.66c1.05-0.57,2.61-1.05,4.3-0.31"/>
			<path class="st0" d="M11.42,9.91c-0.15,0-0.29-0.08-0.37-0.22c-0.11-0.2-0.04-0.45,0.17-0.56c1.1-0.6,2.8-1.14,4.66-0.33
				c0.21,0.09,0.31,0.34,0.21,0.55C16,9.56,15.76,9.65,15.55,9.56c-1.55-0.68-3-0.21-3.93,0.3C11.55,9.89,11.49,9.91,11.42,9.91z"/>
		</g>
	</g>
	<g>
		<g>
			<path class="st1" d="M8.61,12.4c-1.05-0.57-2.61-1.05-4.3-0.31"/>
			<path class="st0" d="M8.61,12.67c-0.07,0-0.13-0.02-0.2-0.05c-0.94-0.51-2.38-0.98-3.93-0.3c-0.21,0.09-0.45,0-0.55-0.21
				c-0.09-0.21,0-0.45,0.21-0.55c1.86-0.81,3.56-0.27,4.66,0.33c0.2,0.11,0.28,0.36,0.17,0.56C8.9,12.59,8.76,12.67,8.61,12.67z"/>
		</g>
		<g>
			<path class="st1" d="M11.42,12.4c1.05-0.57,2.61-1.05,4.3-0.31"/>
			<path class="st0" d="M11.41,12.67c-0.15,0-0.29-0.08-0.37-0.22c-0.11-0.2-0.04-0.45,0.17-0.56c1.1-0.6,2.8-1.14,4.66-0.33
				c0.21,0.09,0.31,0.34,0.21,0.55c-0.09,0.21-0.34,0.31-0.55,0.21c-1.55-0.68-3-0.21-3.93,0.3C11.55,12.65,11.48,12.67,11.41,12.67
				z"/>
		</g>
	</g>
</g>
</svg>
